<?xml version="1.0" encoding="utf-8"?>
<!-- Generator: Adobe Illustrator 15.0.0, SVG Export Plug-In . SVG Version: 6.00 Build 0)  -->
<!DOCTYPE svg PUBLIC "-//W3C//DTD SVG 1.1//EN" "http://www.w3.org/Graphics/SVG/1.1/DTD/svg11.dtd">
<svg version="1.1" id="Calque_1" xmlns="http://www.w3.org/2000/svg" xmlns:xlink="http://www.w3.org/1999/xlink" x="0px" y="0px"
	 width="255.904px" height="188px" viewBox="0 0 255.904 188" enable-background="new 0 0 255.904 188" xml:space="preserve">
<rect display="none" stroke="#000000" stroke-width="0.5" stroke-miterlimit="10" width="255.904" height="188"/>
<g>
	<g>
		<path fill="#FFFFFF" d="M27.258,151.13c-3.225-0.867-4.776-2.69-4.776-5.496c0-3.527,2.829-6.334,8.457-6.334
			c2.95,0,5.873,0.777,7.485,1.613l-1.46,4.449c-1.583-0.984-4.078-1.761-6.238-1.761c-2.102,0-3.042,0.686-3.042,1.671
			c0,0.897,0.61,1.255,1.887,1.616l3.649,1.074c3.803,1.106,5.538,2.808,5.538,5.617c0,3.913-3.345,6.602-8.519,6.602
			c-3.072,0-6.084-1.016-7.424-1.762l1.186-4.543c1.552,1.047,4.017,2.002,6.328,2.002c2.072,0,3.198-0.837,3.198-1.941
			c0-0.896-0.913-1.375-2.403-1.793L27.258,151.13z"/>
	</g>
	<polygon fill="#FFFFFF" points="49.906,147.544 49.906,159.883 44.792,159.883 44.792,139.57 49.237,139.57 59.643,151.908 
		59.643,139.57 64.753,139.57 64.753,159.883 60.338,159.883 	"/>
	<g>
		<path fill="#FFFFFF" d="M81.41,155.461c3.348,0,5.628-2.479,5.628-5.706c0-3.286-2.28-5.737-5.628-5.737
			c-3.257,0-5.628,2.451-5.628,5.737C75.782,152.982,78.152,155.461,81.41,155.461 M81.377,139.27
			c6.117,0,10.681,4.48,10.681,10.486c0,5.946-4.564,10.426-10.681,10.426c-6.054,0-10.618-4.48-10.618-10.426
			C70.759,143.75,75.323,139.27,81.377,139.27"/>
	</g>
	<polygon fill="#FFFFFF" points="111.907,152.056 108.624,159.883 103.055,159.883 95.235,139.57 100.744,139.57 106.28,154.267 
		109.689,146.11 107.252,139.57 112.82,139.57 117.69,153.428 122.953,139.57 128.55,139.57 120.549,159.883 114.979,159.883 	"/>
	<polygon fill="#FFFFFF" points="147.402,152.056 144.119,159.883 138.55,159.883 130.729,139.57 136.239,139.57 141.775,154.267 
		145.184,146.11 142.749,139.57 148.316,139.57 153.185,153.428 158.447,139.57 164.046,139.57 156.044,159.883 150.474,159.883 	
		"/>
	<path fill="#FFFFFF" d="M172.829,152.473h6.114l-2.982-7.947L172.829,152.473z M172.948,139.57h5.995l7.848,20.313h-5.172
		l-1.398-3.732h-8.672l-1.43,3.732h-5.17L172.948,139.57z"/>
	<polygon fill="#FFFFFF" points="187.873,139.57 193.47,139.57 198.917,155.104 204.511,139.57 210.143,139.57 202.173,159.883 
		195.691,159.883 	"/>
	<polygon fill="#FFFFFF" points="214.811,159.883 214.811,139.57 231.422,139.57 231.422,143.931 219.675,143.931 219.675,147.426 
		229.198,147.426 229.198,151.637 219.675,151.637 219.675,155.52 231.422,155.52 231.422,159.883 	"/>
	<path fill="#FFFFFF" stroke="#FFFFFF" stroke-width="0.5" stroke-miterlimit="10" d="M150.39,107.875l-15.568-17.372
		c-0.499-1.858-0.881-5.089,0.981-8.771c2.13-4.211,4.353-8.191,2.667-12.577l26.058,24.725
		C160.968,99.539,156.121,104.332,150.39,107.875 M99.233,104.87c-1.6-3.641-5.703-14.476,2.363-26.228
		c4.23-6.164,6.708-12.104,3.666-19.056l43.922,49.008c-6.534,3.757-14.128,5.923-22.231,5.923
		C116.459,114.518,106.815,110.898,99.233,104.87 M83.688,62.636c0.758-0.111,1.537-0.193,2.353-0.193
		c2.568,0,5.007,0.531,6.521,1.421l0.001,0.001c0.969,0.568,2.262,0.951,3.691,1.196L83.669,79.632
		c-0.553-2.734-0.848-5.557-0.848-8.447C82.821,68.259,83.123,65.401,83.688,62.636 M97.366,39.061
		c0.715,0.104,1.447,0.183,2.227,0.183c2.778,0,5.34-0.569,7.028-1.56c1.515-0.889,3.951-1.42,6.521-1.42
		c2.57,0,5.008,0.531,6.521,1.42c0.002,0.001,0.003,0.001,0.005,0.002c1.688,0.989,4.249,1.558,7.025,1.558
		c2.779,0,5.34-0.569,7.031-1.56c1.514-0.889,3.95-1.42,6.52-1.42c2.57,0,5.006,0.531,6.521,1.42
		c1.689,0.991,4.252,1.558,7.031,1.558c0.942,0,1.835-0.091,2.699-0.219c3.264,2.893,6.083,6.259,8.354,9.985
		c-0.581-0.064-1.175-0.107-1.793-0.107c-2.481,0-4.771,0.508-6.282,1.395c-1.354,0.794-3.533,1.268-5.826,1.268
		c-2.294,0-4.473-0.474-5.827-1.268c-1.508-0.885-3.798-1.393-6.283-1.393c-2.486,0-4.775,0.508-6.282,1.393l0,0.001
		c-1.358,0.794-3.536,1.269-5.828,1.269c-2.293,0-4.473-0.476-5.829-1.27c-1.505-0.885-3.795-1.393-6.28-1.393
		c-2.487,0-4.777,0.508-6.284,1.393c-1.354,0.794-3.532,1.27-5.827,1.27c-2.293,0-4.471-0.475-5.825-1.269l-0.001-0.001
		c-1.509-0.885-3.8-1.393-6.283-1.393c-0.448,0-0.884,0.022-1.311,0.06C91.339,45.272,94.134,41.935,97.366,39.061 M155.5,38.18
		c-0.557,0.055-1.126,0.089-1.707,0.089c-2.566,0-5.001-0.53-6.519-1.418l-0.002-0.002c-1.688-0.989-4.249-1.558-7.031-1.558
		c-2.78,0-5.343,0.568-7.029,1.558c-1.517,0.891-3.956,1.422-6.522,1.422c-2.564,0-5-0.531-6.519-1.42l-0.001-0.002
		c-1.685-0.989-4.249-1.558-7.031-1.558s-5.342,0.568-7.029,1.558c-1.518,0.891-3.953,1.422-6.52,1.422
		c-0.42,0-0.827-0.024-1.227-0.061c7.707-6.452,17.688-10.358,28.585-10.358C137.832,27.852,147.799,31.747,155.5,38.18
		 M104.002,56.464c-0.201-0.054-0.398,0.088-0.53,0.243L97,64.199c-1.545-0.214-2.943-0.595-3.927-1.169
		c-0.001-0.001-0.001-0.001-0.001-0.002c-1.688-0.99-4.251-1.559-7.031-1.559c-0.736,0-1.437,0.063-2.122,0.147
		c0.959-4.157,2.525-8.09,4.607-11.701c0.604-0.082,1.22-0.144,1.87-0.144c2.294,0,4.472,0.474,5.826,1.27c0,0,0.002,0,0.003,0.001
		c1.509,0.883,3.799,1.392,6.281,1.392s4.771-0.509,6.279-1.393c0.001,0,0.001,0,0.001,0c1.354-0.796,3.533-1.27,5.83-1.27
		c2.295,0,4.473,0.474,5.826,1.27c1.512,0.884,3.801,1.393,6.283,1.393s4.772-0.509,6.284-1.393c1.353-0.796,3.53-1.27,5.827-1.27
		c2.294,0,4.474,0.474,5.828,1.27c0,0,0.001,0,0.003,0.001c1.508,0.883,3.797,1.391,6.279,1.391c2.485,0,4.773-0.508,6.282-1.392
		c1.355-0.796,3.536-1.271,5.827-1.271c0.818,0,1.604,0.074,2.353,0.191c2.08,3.619,3.643,7.557,4.595,11.721
		c-0.849-0.125-1.729-0.213-2.656-0.213c-2.78,0-5.341,0.567-7.031,1.559c-1.515,0.889-3.952,1.421-6.519,1.421
		c-2.566,0-5.001-0.531-6.519-1.419c0,0,0-0.001-0.002-0.002c-1.688-0.99-4.249-1.559-7.031-1.559c-2.78,0-5.343,0.568-7.029,1.559
		c-1.517,0.889-3.956,1.421-6.522,1.421c-2.564,0-5-0.531-6.519-1.419c0,0-0.001-0.001-0.001-0.002
		c-1.685-0.99-4.249-1.559-7.031-1.559c-1.413,0-2.725,0.18-3.92,0.466l-4.697-5.239C104.393,56.548,104.203,56.464,104.002,56.464
		 M165.253,92.667l-27.214-25.82c-0.143-0.136-0.336-0.208-0.535-0.191c-0.197,0.015-0.379,0.113-0.5,0.266l-10.859,13.901
		l-16.192-18.068c0.994-0.192,2.068-0.312,3.187-0.312c2.569,0,5.008,0.531,6.521,1.421c0,0,0.003,0.001,0.005,0.002
		c1.688,0.989,4.249,1.558,7.025,1.558c2.779,0,5.34-0.568,7.031-1.56c1.514-0.89,3.95-1.421,6.52-1.421
		c2.57,0,5.006,0.531,6.521,1.421c1.689,0.989,4.252,1.558,7.031,1.558c2.778,0,5.338-0.568,7.027-1.558
		c1.517-0.89,3.956-1.421,6.523-1.421c1.001,0,1.971,0.091,2.881,0.246c0.559,2.75,0.858,5.589,0.858,8.497
		C171.083,79,168.955,86.33,165.253,92.667 M165.953,94.215c0.057-0.067,0.101-0.14,0.127-0.219
		c4.056-6.683,6.395-14.481,6.395-22.811c0-24.649-20.422-44.701-45.523-44.701c-25.101,0-45.522,20.052-45.522,44.701
		c0,3.438,0.411,6.782,1.163,9.999c0.001,0.012,0.006,0.021,0.008,0.034c4.651,19.83,22.765,34.667,44.352,34.667
		c8.616,0,16.68-2.363,23.557-6.462c0.08-0.029,0.158-0.071,0.227-0.13c0.007-0.006,0.009-0.015,0.016-0.021
		C156.958,105.517,162.184,100.344,165.953,94.215"/>
</g>
</svg>
