<?xml version="1.0" encoding="utf-8"?>
<!-- Generator: Adobe Illustrator 15.0.0, SVG Export Plug-In . SVG Version: 6.00 Build 0)  -->
<!DOCTYPE svg PUBLIC "-//W3C//DTD SVG 1.1//EN" "http://www.w3.org/Graphics/SVG/1.1/DTD/svg11.dtd">
<svg version="1.1" id="Calque_1" xmlns="http://www.w3.org/2000/svg" xmlns:xlink="http://www.w3.org/1999/xlink" x="0px" y="0px"
	 width="145px" height="158px" viewBox="54.452 14.5 145 158" enable-background="new 54.452 14.5 145 158" xml:space="preserve">
<rect x="0" display="none" stroke="#000000" stroke-width="0.5" stroke-miterlimit="10" width="255.904" height="188"/>
<g>
	<g display="none">
		<path display="inline" fill="#FFFFFF" d="M27.258,151.13c-3.225-0.866-4.775-2.69-4.775-5.496c0-3.526,2.829-6.334,8.457-6.334
			c2.95,0,5.873,0.777,7.484,1.613l-1.46,4.448c-1.583-0.983-4.077-1.76-6.237-1.76c-2.103,0-3.042,0.686-3.042,1.67
			c0,0.897,0.609,1.256,1.887,1.617l3.649,1.073c3.803,1.106,5.537,2.808,5.537,5.617c0,3.913-3.345,6.603-8.519,6.603
			c-3.072,0-6.084-1.017-7.424-1.763l1.186-4.543c1.553,1.047,4.018,2.002,6.328,2.002c2.072,0,3.198-0.837,3.198-1.94
			c0-0.896-0.913-1.375-2.403-1.793L27.258,151.13z"/>
	</g>
	<polygon display="none" fill="#FFFFFF" points="49.906,147.544 49.906,159.883 44.792,159.883 44.792,139.57 49.237,139.57 
		59.643,151.908 59.643,139.57 64.753,139.57 64.753,159.883 60.338,159.883 	"/>
	<g display="none">
		<path display="inline" fill="#FFFFFF" d="M81.41,155.461c3.348,0,5.628-2.479,5.628-5.706c0-3.286-2.28-5.737-5.628-5.737
			c-3.257,0-5.628,2.451-5.628,5.737C75.782,152.982,78.152,155.461,81.41,155.461 M81.377,139.27
			c6.117,0,10.682,4.48,10.682,10.486c0,5.946-4.564,10.426-10.682,10.426c-6.054,0-10.618-4.479-10.618-10.426
			C70.759,143.75,75.323,139.27,81.377,139.27"/>
	</g>
	<polygon display="none" fill="#FFFFFF" points="111.907,152.057 108.624,159.883 103.055,159.883 95.235,139.57 100.744,139.57 
		106.28,154.268 109.689,146.109 107.252,139.57 112.82,139.57 117.69,153.428 122.953,139.57 128.55,139.57 120.549,159.883 
		114.979,159.883 	"/>
	<polygon display="none" fill="#FFFFFF" points="147.402,152.057 144.119,159.883 138.55,159.883 130.729,139.57 136.239,139.57 
		141.775,154.268 145.184,146.109 142.749,139.57 148.316,139.57 153.185,153.428 158.447,139.57 164.046,139.57 156.044,159.883 
		150.474,159.883 	"/>
	<path display="none" fill="#FFFFFF" d="M172.829,152.473h6.114l-2.982-7.947L172.829,152.473z M172.948,139.57h5.995l7.848,20.313
		h-5.172l-1.397-3.732h-8.673l-1.43,3.732h-5.17L172.948,139.57z"/>
	<polygon display="none" fill="#FFFFFF" points="187.873,139.57 193.47,139.57 198.917,155.104 204.511,139.57 210.143,139.57 
		202.173,159.883 195.691,159.883 	"/>
	<polygon display="none" fill="#FFFFFF" points="214.811,159.883 214.811,139.57 231.422,139.57 231.422,143.932 219.675,143.932 
		219.675,147.426 229.198,147.426 229.198,151.637 219.675,151.637 219.675,155.52 231.422,155.52 231.422,159.883 	"/>
	<path fill="#FFFFFF" stroke="#FFFFFF" stroke-width="0.5" stroke-miterlimit="10" d="M156.108,138.078l-18.703-20.869
		c-0.6-2.232-1.059-6.114,1.18-10.537c2.559-5.059,5.229-9.841,3.203-15.108l31.305,29.702
		C168.815,128.063,162.993,133.821,156.108,138.078 M94.651,134.469c-1.923-4.376-6.852-17.391,2.839-31.509
		c5.081-7.405,8.059-14.541,4.404-22.894l52.765,58.875c-7.85,4.515-16.973,7.116-26.707,7.116
		C115.345,146.058,103.76,141.71,94.651,134.469 M75.976,83.731c0.911-0.134,1.847-0.232,2.826-0.232
		c3.085,0,6.015,0.638,7.834,1.708h0.001c1.164,0.683,2.717,1.143,4.433,1.438l-15.119,17.505
		c-0.664-3.285-1.019-6.676-1.019-10.148C74.934,90.486,75.297,87.053,75.976,83.731 M92.408,55.409
		c0.859,0.125,1.739,0.22,2.675,0.22c3.338,0,6.416-0.684,8.443-1.875c1.821-1.068,4.747-1.706,7.834-1.706
		c3.087,0,6.016,0.638,7.833,1.706c0.002,0.001,0.003,0.001,0.006,0.002c2.029,1.188,5.105,1.872,8.44,1.872
		c3.339,0,6.416-0.684,8.447-1.875c1.818-1.068,4.744-1.706,7.832-1.706s6.014,0.638,7.834,1.706
		c2.029,1.19,5.109,1.872,8.447,1.872c1.131,0,2.203-0.11,3.242-0.264c3.92,3.476,7.307,7.52,10.037,11.996
		c-0.699-0.077-1.414-0.128-2.154-0.128c-2.98,0-5.732,0.61-7.547,1.676c-1.627,0.954-4.246,1.523-7,1.523
		c-2.756,0-5.373-0.57-7-1.523c-1.813-1.063-4.563-1.674-7.549-1.674s-5.734,0.611-7.545,1.674v0.001
		c-1.633,0.954-4.248,1.525-7.002,1.525c-2.754,0-5.374-0.572-7.003-1.526c-1.808-1.063-4.559-1.674-7.544-1.674
		c-2.988,0-5.739,0.611-7.549,1.674c-1.626,0.954-4.242,1.526-7,1.526c-2.754,0-5.371-0.571-6.997-1.525l-0.001-0.001
		c-1.813-1.063-4.566-1.674-7.548-1.674c-0.539,0-1.062,0.026-1.576,0.072C85.167,62.871,88.525,58.862,92.408,55.409
		 M162.247,54.351c-0.67,0.066-1.354,0.107-2.051,0.107c-3.082,0-6.008-0.637-7.832-1.704l-0.002-0.002
		c-2.027-1.188-5.104-1.872-8.447-1.872c-3.34,0-6.418,0.682-8.443,1.872c-1.822,1.071-4.754,1.708-7.835,1.708
		c-3.08,0-6.007-0.637-7.832-1.706l-0.001-0.002c-2.024-1.188-5.104-1.872-8.446-1.872c-3.342,0-6.418,0.682-8.444,1.872
		c-1.825,1.071-4.749,1.708-7.833,1.708c-0.504,0-0.993-0.028-1.474-0.073c9.259-7.751,21.249-12.443,34.341-12.443
		C141.022,41.943,152.995,46.623,162.247,54.351 M100.38,76.316c-0.242-0.064-0.478,0.105-0.636,0.292l-7.776,9
		c-1.856-0.257-3.535-0.715-4.717-1.403c-0.001-0.002-0.001-0.002-0.001-0.004c-2.028-1.188-5.106-1.873-8.447-1.873
		c-0.883,0-1.726,0.077-2.549,0.178c1.152-4.994,3.034-9.719,5.535-14.057c0.725-0.099,1.465-0.173,2.247-0.173
		c2.756,0,5.372,0.57,6.999,1.526c0,0,0.002,0,0.004,0.001c1.813,1.061,4.563,1.672,7.544,1.672c2.982,0,5.732-0.611,7.544-1.673
		c0.001,0,0.001,0,0.001,0c1.627-0.956,4.245-1.526,7.004-1.526c2.757,0,5.373,0.57,6.999,1.526
		c1.816,1.062,4.566,1.673,7.549,1.673c2.98,0,5.732-0.611,7.548-1.673c1.625-0.956,4.24-1.526,7-1.526
		c2.756,0,5.375,0.57,7.002,1.526c0,0,0,0,0.004,0.001c1.811,1.061,4.561,1.671,7.543,1.671c2.986,0,5.734-0.61,7.547-1.672
		c1.627-0.956,4.248-1.527,7-1.527c0.982,0,1.928,0.088,2.826,0.229c2.5,4.348,4.377,9.078,5.52,14.081
		c-1.02-0.15-2.076-0.257-3.189-0.257c-3.34,0-6.416,0.683-8.447,1.873c-1.82,1.069-4.748,1.707-7.832,1.707
		c-3.082,0-6.008-0.638-7.83-1.703c0,0,0-0.002-0.002-0.004c-2.029-1.188-5.105-1.873-8.447-1.873c-3.34,0-6.42,0.683-8.445,1.873
		c-1.822,1.069-4.752,1.707-7.834,1.707c-3.081,0-6.007-0.638-7.832-1.703c0,0-0.001-0.002-0.001-0.004
		c-2.024-1.188-5.104-1.873-8.446-1.873c-1.698,0-3.274,0.217-4.709,0.561l-5.643-6.294C100.85,76.417,100.621,76.316,100.38,76.316
		 M173.964,119.809L141.27,88.79c-0.172-0.164-0.404-0.25-0.643-0.23c-0.236,0.02-0.455,0.137-0.602,0.319l-13.044,16.701
		l-19.453-21.706c1.194-0.23,2.485-0.375,3.83-0.375c3.085,0,6.016,0.638,7.833,1.708c0,0,0.003,0,0.006,0.002
		c2.028,1.188,5.104,1.87,8.44,1.87c3.339,0,6.416-0.682,8.447-1.872c1.818-1.07,4.744-1.708,7.832-1.708s6.014,0.638,7.834,1.708
		c2.029,1.188,5.109,1.87,8.445,1.87c3.338,0,6.414-0.682,8.443-1.87c1.822-1.07,4.752-1.708,7.836-1.708
		c1.203,0,2.369,0.11,3.461,0.296c0.672,3.304,1.031,6.714,1.031,10.207C180.968,103.389,178.411,112.195,173.964,119.809
		 M174.803,121.667c0.07-0.079,0.123-0.166,0.154-0.263c4.873-8.028,7.682-17.396,7.682-27.403
		c0-29.611-24.533-53.701-54.689-53.701c-30.154,0-54.687,24.09-54.687,53.701c0,4.13,0.493,8.146,1.396,12.013
		c0.002,0.014,0.008,0.024,0.011,0.041c5.586,23.822,27.348,41.646,53.282,41.646c10.351,0,20.037-2.839,28.3-7.762
		c0.096-0.035,0.189-0.087,0.271-0.157c0.01-0.007,0.012-0.019,0.02-0.025C163.999,135.246,170.276,129.03,174.803,121.667"/>
</g>
</svg>
