<?xml version="1.0" encoding="utf-8"?>
<!-- Generator: Adobe Illustrator 16.0.0, SVG Export Plug-In . SVG Version: 6.00 Build 0)  -->
<!DOCTYPE svg PUBLIC "-//W3C//DTD SVG 1.1//EN" "http://www.w3.org/Graphics/SVG/1.1/DTD/svg11.dtd">
<svg version="1.1" id="Calque_1" xmlns="http://www.w3.org/2000/svg" xmlns:xlink="http://www.w3.org/1999/xlink" x="0px" y="0px"
	 width="30px" height="30px" viewBox="26.488 26.527 30 30" enable-background="new 26.488 26.527 30 30" xml:space="preserve">
<g>
	<g>
		<defs>
			<rect id="SVGID_1_" x="26.533" y="26.559" width="29.907" height="29.936"/>
		</defs>
		<clipPath id="SVGID_2_">
			<use xlink:href="#SVGID_1_"  overflow="visible"/>
		</clipPath>
		<path clip-path="url(#SVGID_2_)" fill="#FFFFFF" d="M56.44,41.523c0,2.632,0.003,5.263-0.001,7.896
			c-0.002,1.014-0.126,2.014-0.516,2.955c-0.884,2.143-2.48,3.445-4.747,3.908c-0.504,0.104-1.024,0.164-1.538,0.174
			c-1.85,0.029-3.699,0.033-5.549,0.035c-3.251,0.004-6.501,0.008-9.751-0.01c-0.982-0.004-1.971-0.031-2.926-0.301
			c-2.489-0.705-4.034-2.324-4.64-4.836c-0.179-0.742-0.229-1.502-0.231-2.26c-0.009-5.033-0.011-10.067-0.001-15.1
			c0.002-1.024,0.083-2.048,0.436-3.024c0.811-2.238,2.39-3.62,4.704-4.164c0.749-0.176,1.514-0.229,2.277-0.23
			c5.033-0.01,10.066-0.012,15.099,0c1.013,0.002,2.026,0.083,2.992,0.429c2.247,0.807,3.636,2.388,4.182,4.708
			c0.153,0.654,0.209,1.32,0.209,1.992C56.439,36.305,56.44,38.914,56.44,41.523 M41.437,52.605c0,0.01,0,0.02,0,0.027
			c1.444-0.02,2.89-0.031,4.334-0.066c0.803-0.02,1.602-0.105,2.381-0.33c1.601-0.463,2.809-1.41,3.582-2.891
			c0.568-1.088,0.733-2.271,0.773-3.477c0.028-0.865,0.048-1.73,0.043-2.596c-0.015-2.322,0.078-4.645-0.105-6.962
			c-0.067-0.854-0.261-1.68-0.638-2.451c-0.833-1.708-2.216-2.717-4.049-3.142c-0.965-0.223-1.951-0.253-2.934-0.259
			c-2.67-0.014-5.341-0.073-8.01,0.052c-0.681,0.032-1.356,0.112-2.011,0.308c-2.316,0.691-3.682,2.25-4.177,4.597
			c-0.211,1.002-0.223,2.022-0.227,3.038c-0.011,2.384,0.003,4.767,0.032,7.152c0.007,0.621,0.057,1.25,0.168,1.859
			c0.457,2.504,1.887,4.145,4.369,4.824c0.964,0.264,1.955,0.289,2.942,0.311C39.086,52.624,40.261,52.605,41.437,52.605"/>
	</g>
	<g>
		<defs>
			<rect id="SVGID_3_" x="26.533" y="26.559" width="29.907" height="29.936"/>
		</defs>
		<clipPath id="SVGID_4_">
			<use xlink:href="#SVGID_3_"  overflow="visible"/>
		</clipPath>
		<path clip-path="url(#SVGID_4_)" fill="#FFFFFF" d="M50.595,41.526c0,1.045,0.021,2.092-0.008,3.137
			c-0.021,0.814-0.058,1.631-0.168,2.438c-0.148,1.086-0.639,2.008-1.552,2.664c-0.618,0.445-1.324,0.666-2.07,0.752
			c-0.518,0.061-1.042,0.1-1.563,0.104c-2.193,0.02-4.386,0.035-6.578,0.025c-0.825-0.004-1.652-0.051-2.473-0.131
			c-1.176-0.117-2.19-0.578-2.919-1.553c-0.482-0.646-0.717-1.391-0.787-2.178c-0.072-0.801-0.122-1.604-0.129-2.406
			c-0.019-1.895-0.023-3.791,0.001-5.685c0.011-0.897,0.055-1.8,0.168-2.689c0.163-1.271,0.773-2.293,1.917-2.938
			c0.637-0.359,1.34-0.515,2.065-0.57c1.853-0.143,3.708-0.092,5.563-0.1c0.804-0.003,1.609-0.018,2.412,0.011
			c0.848,0.03,1.698,0.062,2.537,0.168c1.096,0.14,2.021,0.632,2.688,1.543c0.443,0.605,0.662,1.301,0.757,2.034
			c0.061,0.473,0.094,0.952,0.104,1.428c0.028,1.315,0.039,2.631,0.057,3.946L50.595,41.526 M47.152,41.534
			c0-3.138-2.528-5.685-5.649-5.688c-3.16-0.004-5.712,2.524-5.715,5.66c-0.002,3.158,2.526,5.703,5.669,5.705
			C44.613,47.21,47.151,44.681,47.152,41.534 M47.398,36.92c0.73-0.002,1.303-0.577,1.304-1.31c0.001-0.729-0.591-1.318-1.32-1.315
			c-0.721,0.003-1.306,0.593-1.304,1.315C46.079,36.35,46.656,36.922,47.398,36.92"/>
	</g>
	<g>
		<defs>
			<rect id="SVGID_5_" x="26.533" y="26.559" width="29.907" height="29.936"/>
		</defs>
		<clipPath id="SVGID_6_">
			<use xlink:href="#SVGID_5_"  overflow="visible"/>
		</clipPath>
		<path clip-path="url(#SVGID_6_)" fill="#FFFFFF" d="M45.2,41.529c-0.004,2.064-1.687,3.732-3.76,3.729
			c-2.031-0.004-3.707-1.705-3.701-3.756c0.006-2.036,1.703-3.709,3.754-3.704C43.525,37.802,45.204,39.493,45.2,41.529"/>
	</g>
</g>
</svg>
