<?xml version="1.0" encoding="utf-8"?>
<!-- Generator: Adobe Illustrator 16.0.0, SVG Export Plug-In . SVG Version: 6.00 Build 0)  -->
<!DOCTYPE svg PUBLIC "-//W3C//DTD SVG 1.1//EN" "http://www.w3.org/Graphics/SVG/1.1/DTD/svg11.dtd">
<svg version="1.1" id="Calque_1" xmlns="http://www.w3.org/2000/svg" xmlns:xlink="http://www.w3.org/1999/xlink" x="0px" y="0px"
	 width="30px" height="30px" viewBox="25.392 25.394 30 30" enable-background="new 25.392 25.394 30 30" xml:space="preserve">
<g>
	<g>
		<defs>
			<rect id="SVGID_1_" x="25.392" y="25.394" width="30" height="30"/>
		</defs>
		<clipPath id="SVGID_2_">
			<use xlink:href="#SVGID_1_"  overflow="visible"/>
		</clipPath>
		<path clip-path="url(#SVGID_2_)" fill="#FFFFFF" d="M25.392,53.909V26.895c0.019-0.036,0.047-0.07,0.056-0.108
			c0.154-0.737,0.6-1.182,1.336-1.337c0.039-0.008,0.072-0.036,0.109-0.055h27.015c0.036,0.019,0.07,0.046,0.11,0.055
			c0.875,0.21,1.373,0.826,1.374,1.714c0,8.828,0,17.656-0.001,26.483c0,1.024-0.725,1.745-1.752,1.745
			c-2.4,0.003-4.802,0.002-7.202,0.002H46.15v-0.287c0-3.67,0.002-7.337-0.006-11.004c0-0.252,0.085-0.302,0.315-0.301
			c1.101,0.012,2.201,0.001,3.302,0.008c0.189,0.003,0.283-0.043,0.309-0.254c0.161-1.331,0.336-2.66,0.508-3.99
			c0.042-0.333,0.042-0.333-0.287-0.333c-1.291,0-2.584,0-3.877,0c-0.134,0-0.268,0.023-0.264-0.19
			c0.01-1.06-0.009-2.118,0.023-3.176c0.029-0.88,0.483-1.412,1.286-1.592c0.17-0.038,0.345-0.064,0.518-0.066
			c0.818-0.011,1.635-0.011,2.451-0.018c0.107-0.001,0.212-0.015,0.305-0.021c0.015-0.031,0.021-0.039,0.021-0.046
			c0.006-1.3,0.013-2.6,0.009-3.898c0-0.054-0.085-0.142-0.144-0.153c-0.179-0.035-0.363-0.048-0.547-0.058
			c-1.306-0.072-2.613-0.209-3.918-0.025c-1.819,0.256-3.24,1.125-4.094,2.801c-0.471,0.924-0.649,1.923-0.663,2.95
			c-0.013,1.058-0.003,2.117-0.003,3.176c0,0.097-0.01,0.194-0.016,0.317h-0.318c-1.092,0-2.185,0.005-3.276-0.005
			c-0.232-0.002-0.316,0.05-0.314,0.301c0.013,1.325,0.011,2.65,0,3.977c-0.001,0.245,0.075,0.31,0.312,0.308
			c1.101-0.012,2.201,0.003,3.301-0.012c0.256-0.003,0.316,0.07,0.316,0.321c-0.008,3.65-0.005,7.302-0.005,10.954v0.315h-0.329
			h-4.952c-2.994,0-5.986,0.002-8.979,0c-0.854,0-1.494-0.517-1.685-1.35C25.44,53.997,25.412,53.954,25.392,53.909"/>
	</g>
</g>
</svg>
