<?xml version="1.0" encoding="utf-8"?>
<!-- Generator: Adobe Illustrator 15.0.0, SVG Export Plug-In . SVG Version: 6.00 Build 0)  -->
<!DOCTYPE svg PUBLIC "-//W3C//DTD SVG 1.1//EN" "http://www.w3.org/Graphics/SVG/1.1/DTD/svg11.dtd">
<svg version="1.1" id="Calque_1" xmlns="http://www.w3.org/2000/svg" xmlns:xlink="http://www.w3.org/1999/xlink" x="0px" y="0px"
	 width="558.075px" height="559.005px" viewBox="0 0 558.075 559.005" enable-background="new 0 0 558.075 559.005"
	 xml:space="preserve">
<g>
	<defs>
		<rect id="SVGID_1_" width="558.075" height="559.005"/>
	</defs>
	<clipPath id="SVGID_2_">
		<use xlink:href="#SVGID_1_"  overflow="visible"/>
	</clipPath>
	<path clip-path="url(#SVGID_2_)" fill="#FFFFFF" d="M520.87,0H37.205C16.742,0,0,16.742,0,37.204v297.641
		c0,20.463,16.742,37.205,37.205,37.205h102.314c30.694,148.82,131.148,183.234,136.728,186.025l2.791,0.93l2.791-0.93
		c5.58-2.791,106.033-37.205,136.728-186.025H520.87c20.463,0,37.205-16.742,37.205-37.205V37.204
		C558.075,16.742,541.333,0,520.87,0 M37.205,18.602H520.87c10.231,0,18.603,8.372,18.603,18.602v55.808H18.603V37.204
		C18.603,26.974,26.974,18.602,37.205,18.602 M279.038,538.542c-18.603-7.44-126.497-64.179-130.218-250.203
		c54.877,0,96.733-11.162,130.218-35.346c34.414,24.184,75.339,35.346,130.216,35.346
		C405.534,483.665,298.571,531.102,279.038,538.542 M539.473,334.845c0,10.231-8.371,18.603-18.603,18.603h-98.592
		c3.719-22.323,5.58-47.437,5.58-74.41v-9.301h-9.302c-58.598,0.93-100.455-10.231-133.938-35.344l-5.58-4.652l-5.581,4.652
		c-3.721,2.79-11.162,7.44-11.162,7.44s-26.357,14.791-41.856,18.603c-15.499,3.811,0,0,0,0c-23.252,6.51-49.296,10.231-80.92,9.301
		h-9.301v9.301v18.603l0.929,18.603c0.931,13.021,2.791,25.113,4.651,37.205H37.205c-10.231,0-18.602-8.371-18.602-18.603v-148.82
		h520.87V334.845z M18.603,111.614h520.871v55.808H18.603V111.614z"/>
	<path clip-path="url(#SVGID_2_)" fill="#FFFFFF" d="M316.242,344.146c0-20.463-16.742-37.205-37.205-37.205
		c-20.462,0-37.205,16.742-37.205,37.205c0,8.371,2.791,20.463,8.371,27.903l-9.301,102.314h76.271l-9.302-102.314
		C313.451,364.609,316.242,352.518,316.242,344.146 M296.71,455.761h-35.345l10.231-90.222l-3.72-2.79
		c-3.721-2.791-6.511-12.092-6.511-18.603c0-10.231,8.371-18.603,18.603-18.603s18.603,8.371,18.603,18.603
		c0,6.511-3.72,15.812-6.511,18.603l-3.721,2.79L296.71,455.761z"/>
</g>
</svg>
