<?xml version="1.0" encoding="utf-8"?>
<!-- Generator: Adobe Illustrator 16.0.0, SVG Export Plug-In . SVG Version: 6.00 Build 0)  -->
<!DOCTYPE svg PUBLIC "-//W3C//DTD SVG 1.1//EN" "http://www.w3.org/Graphics/SVG/1.1/DTD/svg11.dtd">
<svg version="1.1" id="Calque_1" xmlns="http://www.w3.org/2000/svg" xmlns:xlink="http://www.w3.org/1999/xlink" x="0px" y="0px"
	 width="30px" height="30px" viewBox="282.64 405.945 30 30" enable-background="new 282.64 405.945 30 30" xml:space="preserve">
<g>
	<path d="M292.742,406.07c-5.501,0-9.978,4.476-9.978,9.978c0,5.501,4.476,9.978,9.978,9.978c2.527,0,4.83-0.953,6.589-2.507
		l12.302,12.302l0.882-0.882l-12.302-12.301c1.554-1.76,2.507-4.063,2.507-6.59C302.72,410.546,298.244,406.07,292.742,406.07z
		 M292.742,424.776c-4.814,0-8.73-3.914-8.73-8.729s3.916-8.73,8.73-8.73c4.813,0,8.729,3.916,8.729,8.73
		S297.556,424.776,292.742,424.776z"/>
</g>
</svg>
