<?xml version="1.0" encoding="utf-8"?>
<!-- Generator: Adobe Illustrator 16.0.0, SVG Export Plug-In . SVG Version: 6.00 Build 0)  -->
<!DOCTYPE svg PUBLIC "-//W3C//DTD SVG 1.1//EN" "http://www.w3.org/Graphics/SVG/1.1/DTD/svg11.dtd">
<svg version="1.1" id="Calque_1" xmlns="http://www.w3.org/2000/svg" xmlns:xlink="http://www.w3.org/1999/xlink" x="0px" y="0px"
	 width="35px" height="30px" viewBox="15.313 8.24 35 30" enable-background="new 15.313 8.24 35 30" xml:space="preserve">
<g>
	<path fill="#FFFFFF" d="M32.8,10.927c4.242,0.232,8.469,0.403,12.685,0.717c2.415,0.18,3.827,1.539,4.212,3.916
		c0.842,5.193,0.842,10.402-0.018,15.591c-0.385,2.33-1.979,3.718-4.344,3.913c-7.46,0.617-14.928,0.613-22.396,0.19
		c-1.093-0.063-2.192-0.147-3.27-0.334c-2.049-0.352-3.353-1.65-3.726-3.69c-0.615-3.362-0.734-6.761-0.554-10.164
		c0.1-1.868,0.264-3.74,0.557-5.586c0.362-2.278,1.803-3.657,4.112-3.828C24.302,11.336,28.554,11.16,32.8,10.927 M29.302,28.76
		c3.147-1.818,6.152-3.555,9.289-5.364c-3.17-1.828-6.178-3.563-9.289-5.357V28.76z"/>
</g>
</svg>
