<?xml version="1.0" encoding="utf-8"?>
<!-- Generator: Adobe Illustrator 16.0.0, SVG Export Plug-In . SVG Version: 6.00 Build 0)  -->
<!DOCTYPE svg PUBLIC "-//W3C//DTD SVG 1.1//EN" "http://www.w3.org/Graphics/SVG/1.1/DTD/svg11.dtd">
<svg version="1.1" id="Calque_1" xmlns="http://www.w3.org/2000/svg" xmlns:xlink="http://www.w3.org/1999/xlink" x="0px" y="0px"
	 width="30px" height="30px" viewBox="30.223 30 30 30" enable-background="new 30.223 30 30 30" xml:space="preserve">
<g>
	<g>
		<defs>
			<rect id="SVGID_1_" x="30.223" y="30" width="30.148" height="30"/>
		</defs>
		<clipPath id="SVGID_2_">
			<use xlink:href="#SVGID_1_"  overflow="visible"/>
		</clipPath>
		<path clip-path="url(#SVGID_2_)" fill="#FFFFFF" d="M43.598,52.169c-0.713,2.458-1.005,5.038-2.552,7.183
			c6.198,2.011,14.919-0.58,18.254-8.839c3.213-7.955-1.069-17.051-9.229-19.738c-8.306-2.735-17.142,2.012-19.349,10.454
			c-2.082,7.965,2.668,15.124,8.485,17.441c0-0.124-0.008-0.243,0.001-0.359c0.073-0.911,0.05-1.844,0.243-2.729
			c0.592-2.733,1.268-5.449,1.901-8.174c0.039-0.166,0.024-0.366-0.032-0.526c-0.384-1.094-0.504-2.206-0.235-3.338
			c0.245-1.033,0.732-1.919,1.714-2.429c1.471-0.763,2.992,0.06,3.08,1.708c0.034,0.642-0.083,1.311-0.24,1.94
			c-0.314,1.263-0.738,2.497-1.051,3.76c-0.301,1.213,0.395,2.345,1.592,2.682c1.123,0.316,2.106-0.012,2.98-0.727
			c0.664-0.542,1.133-1.239,1.496-2.007c0.844-1.784,1.147-3.679,1.027-5.631c-0.124-2.021-1.038-3.619-2.9-4.492
			c-2.385-1.118-4.815-1.026-7.121,0.221c-2.26,1.222-3.395,3.235-3.597,5.774c-0.081,1.016-0.022,2.072,0.642,2.87
			c0.629,0.755,0.629,1.465,0.319,2.285c-0.02,0.05-0.03,0.103-0.044,0.154c-0.154,0.563-0.426,0.691-0.957,0.448
			c-0.992-0.454-1.708-1.195-2.186-2.162c-0.709-1.437-0.914-2.97-0.685-4.535c0.448-3.057,2.091-5.329,4.733-6.889
			c1.542-0.91,3.235-1.339,5.009-1.461c2.281-0.157,4.453,0.222,6.415,1.453c2.314,1.452,3.775,3.521,4.055,6.255
			c0.266,2.599-0.232,5.095-1.592,7.362c-1.201,2.002-2.917,3.325-5.262,3.719C46.603,54.163,44.917,53.768,43.598,52.169"/>
	</g>
	<g>
		<defs>
			<rect id="SVGID_3_" x="30.223" y="30" width="30.148" height="30"/>
		</defs>
		<clipPath id="SVGID_4_">
			<use xlink:href="#SVGID_3_"  overflow="visible"/>
		</clipPath>
		<path clip-path="url(#SVGID_4_)" fill="#FFFFFF" d="M43.598,52.169c1.32,1.599,3.005,1.993,4.916,1.673
			c2.345-0.394,4.061-1.717,5.262-3.719c1.359-2.267,1.857-4.763,1.593-7.362c-0.28-2.734-1.741-4.803-4.056-6.255
			c-1.962-1.23-4.134-1.609-6.415-1.453c-1.774,0.122-3.468,0.551-5.009,1.461c-2.642,1.56-4.286,3.832-4.733,6.889
			c-0.229,1.564-0.024,3.098,0.685,4.535c0.478,0.967,1.194,1.708,2.186,2.162c0.531,0.243,0.803,0.115,0.957-0.448
			c0.015-0.052,0.025-0.104,0.044-0.154c0.311-0.82,0.311-1.53-0.318-2.285c-0.665-0.798-0.723-1.854-0.643-2.87
			c0.203-2.539,1.337-4.552,3.597-5.774c2.306-1.247,4.737-1.339,7.121-0.221c1.862,0.873,2.776,2.471,2.9,4.492
			c0.12,1.952-0.183,3.847-1.027,5.631c-0.363,0.768-0.832,1.465-1.495,2.007c-0.875,0.715-1.858,1.043-2.98,0.727
			c-1.199-0.337-1.895-1.469-1.593-2.682c0.313-1.263,0.737-2.497,1.051-3.76c0.157-0.63,0.274-1.298,0.24-1.94
			c-0.088-1.649-1.608-2.471-3.08-1.708c-0.982,0.51-1.47,1.396-1.714,2.429c-0.269,1.133-0.149,2.245,0.235,3.338
			c0.056,0.16,0.07,0.36,0.032,0.526c-0.633,2.725-1.31,5.44-1.901,8.174c-0.192,0.886-0.17,1.818-0.242,2.729
			c-0.01,0.117-0.001,0.235-0.001,0.359c-5.818-2.317-10.568-9.476-8.486-17.441c2.207-8.442,11.043-13.189,19.349-10.454
			c8.16,2.688,12.441,11.783,9.229,19.738c-3.335,8.259-12.057,10.85-18.254,8.839C42.592,57.207,42.885,54.627,43.598,52.169"/>
	</g>
</g>
</svg>
