<?xml version="1.0" encoding="utf-8"?>
<!-- Generator: Adobe Illustrator 15.0.0, SVG Export Plug-In . SVG Version: 6.00 Build 0)  -->
<!DOCTYPE svg PUBLIC "-//W3C//DTD SVG 1.1//EN" "http://www.w3.org/Graphics/SVG/1.1/DTD/svg11.dtd">
<svg version="1.1" id="Calque_1" xmlns="http://www.w3.org/2000/svg" xmlns:xlink="http://www.w3.org/1999/xlink" x="0px" y="0px"
	 width="861px" height="440.509px" viewBox="0 0 861 440.509" enable-background="new 0 0 861 440.509" xml:space="preserve">
<g>
	<defs>
		<rect id="SVGID_1_" width="454.247" height="440.509"/>
	</defs>
	<clipPath id="SVGID_2_">
		<use xlink:href="#SVGID_1_"  overflow="visible"/>
	</clipPath>
	<path clip-path="url(#SVGID_2_)" fill="#FFFFFF" d="M8.894,383.797l215.224,56.331c0.994,0.256,2.006,0.381,3.012,0.381
		c1.007,0,2.019-0.125,3.007-0.381l215.223-56.331c5.238-1.363,8.889-6.096,8.889-11.519V68.233c0-3.691-1.709-7.173-4.625-9.423
		c-1.287-0.994-2.746-1.638-4.281-2.036l0.018-0.06L230.142,0.389c-1.977-0.519-4.054-0.519-6.03,0L8.894,56.714l0.012,0.054
		c-1.524,0.398-2.994,1.048-4.274,2.042C1.708,61.06,0,64.542,0,68.233v304.045C0,377.689,3.655,382.422,8.894,383.797
		 M215.224,134.368V413.18l-83.803-21.936V112.439L215.224,134.368z M227.129,112.254l-58.534-15.323l168.191-44.027l58.527,15.317
		L227.129,112.254z M23.812,84.27l83.797,21.935v278.813l-83.797-21.931V84.27z M430.44,363.087L239.034,413.18V133.755
		L430.44,83.656V363.087z M227.129,24.212l62.63,16.394l-168.19,44.021L58.933,68.233L227.129,24.212z"/>
</g>
<g>
	<path fill="#FFFFFF" d="M546.642,185.096c-4.93,0-8.93-3.994-8.93-8.929c0-30.692,24.967-55.665,55.665-55.665H746.59
		c4.93,0,8.93,3.994,8.93,8.93c0,4.935-4,8.929-8.93,8.929H593.376c-20.846,0-37.806,16.96-37.806,37.806
		C555.57,181.102,551.57,185.096,546.642,185.096"/>
	<path fill="#FFFFFF" d="M752.543,138.361c-2.393,0-4.781-0.958-6.543-2.852l-37.705-40.544c-3.352-3.607-3.147-9.262,0.459-12.62
		c3.607-3.357,9.25-3.161,12.619,0.458l37.705,40.545c3.352,3.608,3.151,9.263-0.457,12.62
		C756.9,137.576,754.721,138.361,752.543,138.361"/>
	<path fill="#FFFFFF" d="M714.838,178.906c-2.18,0-4.357-0.792-6.078-2.388c-3.607-3.357-3.816-9.011-0.459-12.619l37.705-40.545
		c3.369-3.613,9.021-3.809,12.621-0.458c3.607,3.358,3.815,9.012,0.457,12.619l-37.703,40.545
		C719.617,177.947,717.225,178.906,714.838,178.906"/>
	<path fill="#FFFFFF" d="M705.807,270.169H552.595c-4.93,0-8.93-3.994-8.93-8.93s4-8.93,8.93-8.93h153.206
		c20.848,0,37.813-16.959,37.813-37.806c0-4.935,4-8.929,8.93-8.929s8.93,3.994,8.93,8.929
		C761.473,245.202,736.5,270.169,705.807,270.169"/>
	<path fill="#FFFFFF" d="M584.341,310.712c-2.394,0-4.78-0.957-6.543-2.85l-37.699-40.539c-3.352-3.607-3.148-9.264,0.459-12.621
		c3.601-3.357,9.257-3.154,12.619,0.459l37.699,40.539c3.353,3.607,3.149,9.262-0.457,12.619
		C588.703,309.921,586.52,310.712,584.341,310.712"/>
	<path fill="#FFFFFF" d="M546.642,270.169c-2.18,0-4.357-0.793-6.078-2.389c-3.607-3.357-3.821-9.006-0.459-12.619l37.699-40.544
		c3.369-3.619,9.02-3.81,12.621-0.458c3.607,3.357,3.82,9.006,0.457,12.62l-37.699,40.545
		C551.421,269.216,549.034,270.169,546.642,270.169"/>
</g>
</svg>
