<?xml version="1.0" encoding="utf-8"?>
<!-- Generator: Adobe Illustrator 15.0.0, SVG Export Plug-In . SVG Version: 6.00 Build 0)  -->
<!DOCTYPE svg PUBLIC "-//W3C//DTD SVG 1.1//EN" "http://www.w3.org/Graphics/SVG/1.1/DTD/svg11.dtd">
<svg version="1.1" id="Calque_1" xmlns="http://www.w3.org/2000/svg" xmlns:xlink="http://www.w3.org/1999/xlink" x="0px" y="0px"
	 width="464.948px" height="493.548px" viewBox="0 0 464.948 493.548" enable-background="new 0 0 464.948 493.548"
	 xml:space="preserve">
<g>
	<defs>
		<rect id="SVGID_1_" width="464.948" height="493.548"/>
	</defs>
	<clipPath id="SVGID_2_">
		<use xlink:href="#SVGID_1_"  overflow="visible"/>
	</clipPath>
	<path clip-path="url(#SVGID_2_)" fill="#FFFFFF" d="M414.486,237.182h-7.906V174.05C406.58,78.131,328.451,0,232.531,0
		c-95.919,0-174.05,78.131-174.05,174.05v63.132h-7.906C22.651,237.202,0.02,259.834,0,287.758v52.087
		c0.02,27.924,22.652,50.556,50.576,50.575h45.46c6.413-0.018,11.608-5.213,11.627-11.626V248.809
		c-0.019-6.413-5.214-11.609-11.627-11.627H81.619V174.05c0-83.13,67.667-150.797,150.796-150.797
		c83.13,0,150.796,67.667,150.796,150.797v63.132h-14.416c-6.414,0.018-11.607,5.214-11.627,11.627v129.985
		c0.02,6.413,5.213,11.608,11.627,11.626h14.416v15.464c-0.031,19.507-15.838,35.313-35.344,35.345h-22.789
		c-1.137,0.032-2.268,0.188-3.371,0.465c-5.002-17.487-20.992-29.539-39.182-29.531h-57.203c-22.474,0-40.693,18.219-40.693,40.693
		c0,22.474,18.219,40.692,40.693,40.692h57.203c18.174-0.038,34.139-12.071,39.182-29.531c1.092,0.333,2.23,0.49,3.371,0.465h22.789
		c32.35-0.028,58.568-26.247,58.598-58.598V390.42h7.906c27.924-0.02,50.555-22.651,50.576-50.575v-51.971
		c0.127-27.867-22.359-50.563-50.227-50.691C414.643,237.183,414.564,237.182,414.486,237.182 M84.409,367.167H50.576
		c-15.08-0.023-27.299-12.242-27.323-27.322v-51.971c0.024-15.08,12.243-27.299,27.323-27.322h33.833V367.167z M282.643,470.295
		h-57.204c-9.631,0-17.44-7.809-17.44-17.439c0-9.632,7.809-17.44,17.44-17.44h57.204c9.631,0,17.439,7.809,17.439,17.44
		C300.082,462.486,292.273,470.295,282.643,470.295 M441.809,339.845c-0.023,15.08-12.242,27.299-27.322,27.322h-33.832V260.436
		h33.832c15.08,0.023,27.299,12.242,27.322,27.322V339.845z"/>
</g>
</svg>
