<?xml version="1.0" encoding="utf-8"?>
<!-- Generator: Adobe Illustrator 16.0.0, SVG Export Plug-In . SVG Version: 6.00 Build 0)  -->
<!DOCTYPE svg PUBLIC "-//W3C//DTD SVG 1.1//EN" "http://www.w3.org/Graphics/SVG/1.1/DTD/svg11.dtd">
<svg version="1.1" id="Calque_1" xmlns="http://www.w3.org/2000/svg" xmlns:xlink="http://www.w3.org/1999/xlink" x="0px" y="0px"
	 width="30px" height="30px" viewBox="25.042 25.036 30 30" enable-background="new 25.042 25.036 30 30" xml:space="preserve">
<g>
	<g>
		<defs>
			<rect id="SVGID_1_" x="25.042" y="25.037" width="30" height="29.996"/>
		</defs>
		<clipPath id="SVGID_2_">
			<use xlink:href="#SVGID_1_"  overflow="visible"/>
		</clipPath>
		<path clip-path="url(#SVGID_2_)" fill="#FFFFFF" d="M25.042,49.724V30.329c0.006-0.031,0.014-0.062,0.019-0.093
			c0.035-0.25,0.054-0.504,0.107-0.75c0.282-1.296,0.942-2.366,1.972-3.202c0.802-0.651,1.718-1.048,2.743-1.189
			c0.15-0.021,0.301-0.038,0.451-0.057h19.395c0.035,0.006,0.068,0.015,0.103,0.018c0.714,0.048,1.399,0.217,2.031,0.548
			c2.054,1.075,3.156,2.779,3.165,5.099c0.025,6.22,0.009,12.44,0.006,18.661c0,0.284-0.018,0.572-0.059,0.854
			c-0.161,1.103-0.606,2.08-1.353,2.911c-1.133,1.26-2.554,1.899-4.245,1.901c-6.23,0.006-12.46,0.002-18.69,0.002
			c-0.394,0-0.785-0.036-1.17-0.118c-1.175-0.252-2.175-0.818-2.988-1.701c-0.758-0.822-1.23-1.789-1.41-2.896
			C25.086,50.119,25.067,49.921,25.042,49.724 M36.505,50.49h4.735v-0.131c0-2.633,0.001-5.266-0.001-7.898
			c0-0.492,0.099-0.953,0.349-1.382c0.449-0.773,1.095-1.223,2.007-1.241c0.411-0.009,0.809,0.056,1.166,0.276
			c0.4,0.246,0.633,0.621,0.779,1.056c0.176,0.522,0.228,1.064,0.229,1.612c0.003,2.527,0.001,5.057,0.001,7.584v0.123h4.698v-0.133
			c0-2.617,0.003-5.233-0.004-7.851c-0.001-0.434-0.028-0.869-0.069-1.301c-0.073-0.764-0.26-1.502-0.589-2.198
			c-0.616-1.303-1.61-2.167-3.006-2.548c-0.801-0.218-1.614-0.251-2.432-0.131c-0.566,0.083-1.099,0.268-1.588,0.57
			c-0.609,0.376-1.069,0.897-1.459,1.489c-0.021,0.032-0.044,0.063-0.066,0.095c-0.011-0.003-0.022-0.005-0.033-0.008v-1.918h-4.717
			V50.49z M29.63,36.552v0.105c0.001,0.647,0.001,1.294,0.003,1.942c0.004,1.668,0.009,3.336,0.012,5.005
			c0.004,2.261,0.008,4.522,0.009,6.784c0,0.089,0.025,0.11,0.111,0.11c1.481-0.002,2.963-0.001,4.444-0.002
			c0.034,0,0.067-0.002,0.089-0.004V36.552H29.63z M29.338,32.536c0.028,0.79,0.446,1.519,1.333,1.939
			c0.584,0.277,1.205,0.304,1.833,0.182c0.535-0.103,1.001-0.34,1.361-0.755c0.515-0.595,0.669-1.289,0.504-2.051
			c-0.17-0.787-0.633-1.34-1.382-1.641c-0.569-0.23-1.16-0.249-1.756-0.129C30.092,30.307,29.343,31.211,29.338,32.536"/>
	</g>
</g>
</svg>
