<?xml version="1.0" encoding="utf-8"?>
<!-- Generator: Adobe Illustrator 16.0.0, SVG Export Plug-In . SVG Version: 6.00 Build 0)  -->
<!DOCTYPE svg PUBLIC "-//W3C//DTD SVG 1.1//EN" "http://www.w3.org/Graphics/SVG/1.1/DTD/svg11.dtd">
<svg version="1.1" id="Calque_1" xmlns="http://www.w3.org/2000/svg" xmlns:xlink="http://www.w3.org/1999/xlink" x="0px" y="0px"
	 width="30px" height="30px" viewBox="209.35 209.349 30 30" enable-background="new 209.35 209.349 30 30" xml:space="preserve">
<g>
	<g>
		<defs>
			<rect id="SVGID_1_" x="1355.678" y="-529.874" width="448.699" height="448.697"/>
		</defs>
		<clipPath id="SVGID_2_">
			<use xlink:href="#SVGID_1_"  overflow="visible"/>
		</clipPath>
		<path clip-path="url(#SVGID_2_)" d="M1580.027-526.374c-122.032,0-220.85,99.412-220.85,220.849
			c0,61.314,25.002,116.675,65.481,156.56c0.595,0.596,1.19,1.785,2.381,2.382c39.288,38.098,93.459,61.908,152.987,61.908
			c56.551,0,108.344-21.431,147.629-56.552c0.598-0.596,1.787-1.189,2.383-2.382c43.457-40.479,70.84-98.221,70.84-161.916
			C1800.877-427.558,1702.061-526.374,1580.027-526.374 M1448.471-158.491c13.096-22.025,32.74-41.074,55.36-55.956
			c13.692,7.144,46.433,22.025,72.029,22.025s58.335-15.479,72.028-22.025c24.406,15.478,44.646,36.907,57.742,60.719
			c-33.93,28.573-77.98,45.241-125.604,45.241C1529.428-108.487,1483.592-127.536,1448.471-158.491 M1723.492-170.396
			c-16.67-26.788-40.48-50.599-69.055-67.862c-3.572-2.381-8.334-2.381-11.906,0c-11.311,5.953-45.24,22.621-66.67,22.621
			s-55.361-16.07-66.672-22.621c-3.571-1.784-8.334-1.784-11.905,0c-26.788,16.073-49.408,37.504-65.479,62.506
			c-30.36-35.121-48.813-80.363-48.813-129.771c0-108.936,88.696-197.038,197.037-197.038c108.343,0,197.036,88.103,197.036,197.038
			C1777.064-253.141,1756.826-206.113,1723.492-170.396"/>
	</g>
	<g>
		<defs>
			<rect id="SVGID_3_" x="1355.678" y="-529.874" width="448.699" height="448.697"/>
		</defs>
		<clipPath id="SVGID_4_">
			<use xlink:href="#SVGID_3_"  overflow="visible"/>
		</clipPath>
		<path clip-path="url(#SVGID_4_)" fill="none" stroke="#FFFFFF" stroke-width="7" stroke-miterlimit="10" d="M1580.027-526.374
			c-122.032,0-220.85,99.412-220.85,220.849c0,61.314,25.002,116.675,65.481,156.56c0.595,0.596,1.19,1.785,2.381,2.382
			c39.288,38.098,93.459,61.908,152.987,61.908c56.551,0,108.344-21.431,147.629-56.552c0.598-0.596,1.787-1.189,2.383-2.382
			c43.457-40.479,70.84-98.221,70.84-161.916C1800.877-427.558,1702.061-526.374,1580.027-526.374z M1448.471-158.491
			c13.096-22.025,32.74-41.074,55.36-55.956c13.692,7.144,46.433,22.025,72.029,22.025s58.335-15.479,72.028-22.025
			c24.406,15.478,44.646,36.907,57.742,60.719c-33.93,28.573-77.98,45.241-125.604,45.241
			C1529.428-108.487,1483.592-127.536,1448.471-158.491z M1723.492-170.396c-16.67-26.788-40.48-50.599-69.055-67.862
			c-3.572-2.381-8.334-2.381-11.906,0c-11.311,5.953-45.24,22.621-66.67,22.621s-55.361-16.07-66.672-22.621
			c-3.571-1.784-8.334-1.784-11.905,0c-26.788,16.073-49.408,37.504-65.479,62.506c-30.36-35.121-48.813-80.363-48.813-129.771
			c0-108.936,88.696-197.038,197.037-197.038c108.343,0,197.036,88.103,197.036,197.038
			C1777.064-253.141,1756.826-206.113,1723.492-170.396z"/>
	</g>
	<g>
		<defs>
			<rect id="SVGID_5_" x="1355.678" y="-529.874" width="448.699" height="448.697"/>
		</defs>
		<clipPath id="SVGID_6_">
			<use xlink:href="#SVGID_5_"  overflow="visible"/>
		</clipPath>
		<path clip-path="url(#SVGID_6_)" d="M1580.027-436.488c-55.36,0-86.911,34.527-86.911,95.245
			c0,56.552,42.86,111.915,86.911,111.915c45.242,0,86.91-53.576,86.91-111.915C1666.344-401.96,1634.793-436.488,1580.027-436.488
			 M1580.027-253.141c-33.334,0-63.1-49.407-63.1-88.102c0-32.74,10.715-71.434,63.1-71.434s63.102,38.693,63.102,71.434
			C1642.531-297.191,1611.578-253.141,1580.027-253.141"/>
	</g>
	<g>
		<defs>
			<rect id="SVGID_7_" x="1355.678" y="-529.874" width="448.699" height="448.697"/>
		</defs>
		<clipPath id="SVGID_8_">
			<use xlink:href="#SVGID_7_"  overflow="visible"/>
		</clipPath>
		<path clip-path="url(#SVGID_8_)" fill="none" stroke="#FFFFFF" stroke-width="7" stroke-miterlimit="10" d="M1580.027-436.488
			c-55.36,0-86.911,34.527-86.911,95.245c0,56.552,42.86,111.915,86.911,111.915c45.242,0,86.91-53.576,86.91-111.915
			C1666.344-401.96,1634.793-436.488,1580.027-436.488z M1580.027-253.141c-33.334,0-63.1-49.407-63.1-88.102
			c0-32.74,10.715-71.434,63.1-71.434s63.102,38.693,63.102,71.434C1642.531-297.191,1611.578-253.141,1580.027-253.141z"/>
	</g>
</g>
<g>
	<g>
		<defs>
			<rect id="SVGID_9_" x="209.35" y="209.349" width="30" height="30"/>
		</defs>
		<clipPath id="SVGID_10_">
			<use xlink:href="#SVGID_9_"  overflow="visible"/>
		</clipPath>
		<g clip-path="url(#SVGID_10_)">
			<path d="M224.35,209.583c-8.159,0-14.766,6.647-14.766,14.766c0,4.1,1.671,7.801,4.378,10.468c0.04,0.04,0.08,0.119,0.159,0.159
				c2.627,2.547,6.249,4.14,10.229,4.14c3.781,0,7.244-1.434,9.871-3.781c0.04-0.04,0.119-0.08,0.159-0.16
				c2.905-2.706,4.736-6.566,4.736-10.825C239.116,216.19,232.509,209.583,224.35,209.583 M215.554,234.18
				c0.875-1.473,2.189-2.746,3.701-3.741c0.916,0.478,3.104,1.473,4.816,1.473c1.711,0,3.9-1.035,4.815-1.473
				c1.632,1.034,2.985,2.467,3.861,4.06c-2.269,1.91-5.214,3.024-8.398,3.024C220.967,237.523,217.902,236.249,215.554,234.18
				 M233.942,233.384c-1.115-1.791-2.707-3.384-4.617-4.538c-0.239-0.158-0.558-0.158-0.797,0c-0.756,0.398-3.024,1.513-4.457,1.513
				s-3.701-1.074-4.458-1.513c-0.239-0.119-0.557-0.119-0.796,0c-1.791,1.075-3.303,2.508-4.378,4.18
				c-2.03-2.349-3.263-5.373-3.263-8.677c0-7.283,5.93-13.174,13.174-13.174c7.244,0,13.173,5.891,13.173,13.174
				C237.523,227.852,236.171,230.995,233.942,233.384"/>
		</g>
	</g>
	<g>
		<defs>
			<rect id="SVGID_11_" x="209.35" y="209.349" width="30" height="30"/>
		</defs>
		<clipPath id="SVGID_12_">
			<use xlink:href="#SVGID_11_"  overflow="visible"/>
		</clipPath>
		<g clip-path="url(#SVGID_12_)">
			<path fill="#FFFFFF" d="M224.35,239.349c-3.895,0-7.577-1.486-10.371-4.185c-0.082-0.051-0.133-0.118-0.166-0.16
				c-0.007-0.009-0.012-0.017-0.019-0.023c-2.866-2.823-4.445-6.601-4.445-10.632c0-8.271,6.729-15,15-15
				c4.008,0,7.776,1.56,10.608,4.392c2.832,2.833,4.392,6.6,4.392,10.608c0,4.13-1.743,8.127-4.785,10.974
				c-0.051,0.078-0.115,0.128-0.157,0.16c-0.008,0.006-0.017,0.012-0.022,0.018l-0.009,0.008
				C231.606,237.986,228.045,239.349,224.35,239.349z M224.35,209.817c-8.013,0-14.532,6.519-14.532,14.532
				c0,3.905,1.53,7.563,4.308,10.301c0.024,0.024,0.042,0.048,0.059,0.069c0.012,0.016,0.033,0.042,0.042,0.048l0.032,0.016
				l0.026,0.025c2.708,2.626,6.283,4.073,10.066,4.073c3.579,0,7.027-1.32,9.71-3.718c0.021-0.021,0.043-0.037,0.063-0.053
				c0.016-0.012,0.042-0.032,0.048-0.041l0.019-0.038l0.03-0.028c2.963-2.76,4.662-6.643,4.662-10.654
				C238.882,216.336,232.362,209.817,224.35,209.817z M224.35,237.757c-3.283,0-6.462-1.208-8.951-3.402l-0.145-0.128l0.099-0.167
				c0.853-1.434,2.157-2.754,3.774-3.817l0.115-0.075l0.122,0.063c0.462,0.241,2.865,1.446,4.708,1.446
				c1.683,0,3.886-1.054,4.715-1.449l0.117-0.057l0.109,0.069c1.645,1.044,3.044,2.516,3.94,4.145l0.092,0.169l-0.146,0.123
				C230.54,236.663,227.504,237.757,224.35,237.757z M215.857,234.132c2.38,2.037,5.389,3.157,8.493,3.157
				c2.978,0,5.845-1.01,8.098-2.847c-0.841-1.459-2.103-2.777-3.578-3.736c-0.932,0.443-3.087,1.438-4.799,1.438
				c-1.82,0-4.111-1.086-4.801-1.436C217.828,231.678,216.653,232.857,215.857,234.132z M233.904,233.767l-0.161-0.26
				c-1.121-1.801-2.69-3.344-4.539-4.461l-0.009-0.005c-0.157-0.104-0.379-0.104-0.537,0l-0.021,0.013
				c-0.687,0.36-3.043,1.539-4.566,1.539c-1.439,0-3.693-1.035-4.568-1.54c-0.165-0.08-0.409-0.08-0.574-0.001
				c-1.767,1.062-3.251,2.479-4.292,4.101l-0.169,0.263l-0.205-0.236c-2.141-2.478-3.321-5.613-3.321-8.83
				c0-7.393,6.015-13.408,13.408-13.408c7.393,0,13.408,6.015,13.408,13.408c0,3.411-1.294,6.676-3.645,9.194L233.904,233.767z
				 M229.45,228.649c1.82,1.101,3.379,2.601,4.524,4.352c2.141-2.399,3.315-5.46,3.315-8.651c0-7.135-5.805-12.94-12.94-12.94
				s-12.94,5.805-12.94,12.94c0,3.003,1.065,5.934,3.007,8.287c1.07-1.573,2.544-2.948,4.28-3.99l0.016-0.009
				c0.149-0.074,0.323-0.114,0.503-0.114c0.179,0,0.353,0.04,0.502,0.114l0.013,0.007c0.801,0.464,3.006,1.48,4.34,1.48
				c1.442,0,3.844-1.22,4.339-1.479c0.153-0.1,0.332-0.151,0.517-0.151C229.114,228.493,229.296,228.547,229.45,228.649z"/>
		</g>
	</g>
	<g>
		<defs>
			<rect id="SVGID_13_" x="209.35" y="209.349" width="30" height="30"/>
		</defs>
		<clipPath id="SVGID_14_">
			<use xlink:href="#SVGID_13_"  overflow="visible"/>
		</clipPath>
		<g clip-path="url(#SVGID_14_)">
			<path d="M224.35,215.593c-3.702,0-5.811,2.308-5.811,6.368c0,3.781,2.866,7.483,5.811,7.483c3.025,0,5.81-3.582,5.81-7.483
				C230.121,217.901,228.012,215.593,224.35,215.593 M224.35,227.852c-2.229,0-4.219-3.304-4.219-5.891
				c0-2.189,0.717-4.776,4.219-4.776s4.219,2.587,4.219,4.776C228.528,224.906,226.459,227.852,224.35,227.852"/>
		</g>
	</g>
	<g>
		<defs>
			<rect id="SVGID_15_" x="209.35" y="209.349" width="30" height="30"/>
		</defs>
		<clipPath id="SVGID_16_">
			<use xlink:href="#SVGID_15_"  overflow="visible"/>
		</clipPath>
		<g clip-path="url(#SVGID_16_)">
			<path fill="#FFFFFF" d="M224.35,229.677c-1.476,0-3.005-0.879-4.195-2.413c-1.176-1.517-1.851-3.449-1.851-5.303
				c0-4.196,2.203-6.602,6.045-6.602c3.8,0,6.003,2.406,6.044,6.6C230.395,225.999,227.514,229.677,224.35,229.677z M224.35,215.826
				c-3.597,0-5.577,2.179-5.577,6.134c0,3.659,2.762,7.249,5.577,7.249c1.369,0,2.774-0.797,3.855-2.188
				c1.094-1.409,1.722-3.253,1.722-5.061C229.888,218.006,227.907,215.826,224.35,215.826z M224.35,228.085
				c-1.104,0-2.248-0.757-3.14-2.078c-0.823-1.218-1.313-2.73-1.313-4.046c0-3.278,1.54-5.01,4.453-5.01
				c2.913,0,4.453,1.732,4.453,5.01c-0.02,1.459-0.521,2.984-1.377,4.186C226.549,227.378,225.428,228.085,224.35,228.085z
				 M224.35,217.419c-2.645,0-3.985,1.528-3.985,4.542c0,1.226,0.461,2.641,1.234,3.785c0.804,1.189,1.806,1.872,2.751,1.872
				c0.924,0,1.907-0.635,2.695-1.742c0.801-1.126,1.271-2.554,1.29-3.917C228.335,218.947,226.994,217.419,224.35,217.419z"/>
		</g>
	</g>
</g>
</svg>
