<?xml version="1.0" encoding="utf-8"?>
<!-- Generator: Adobe Illustrator 15.0.0, SVG Export Plug-In . SVG Version: 6.00 Build 0)  -->
<!DOCTYPE svg PUBLIC "-//W3C//DTD SVG 1.1//EN" "http://www.w3.org/Graphics/SVG/1.1/DTD/svg11.dtd">
<svg version="1.1" id="Calque_1" xmlns="http://www.w3.org/2000/svg" xmlns:xlink="http://www.w3.org/1999/xlink" x="0px" y="0px"
	 width="581.589px" height="583.375px" viewBox="0 0 581.589 583.375" enable-background="new 0 0 581.589 583.375"
	 xml:space="preserve">
<g>
	<defs>
		<rect id="SVGID_1_" width="581.589" height="583.375"/>
	</defs>
	<clipPath id="SVGID_2_">
		<use xlink:href="#SVGID_1_"  overflow="visible"/>
	</clipPath>
	<path clip-path="url(#SVGID_2_)" fill="#FFFFFF" d="M291.091,583.374c-14.286,0-24.405-13.095-33.93-24.405
		c-5.357-6.548-11.906-15.478-16.073-16.072c-4.167-1.19-14.286,4.762-22.025,8.929c-13.096,7.144-26.788,14.882-39.884,9.524
		c-13.096-5.357-17.263-20.835-21.43-35.121c-2.381-7.739-5.357-19.049-8.929-21.431c-3.572-2.382-14.882-1.19-23.216,0
		c-14.882,1.786-30.955,3.572-40.479-6.549c-10.12-10.119-8.334-25.596-6.548-40.478c1.191-8.334,2.381-19.645,0-23.217
		c-2.381-3.571-13.096-6.548-21.43-8.929c-14.882-4.167-29.764-8.335-35.122-21.43c-5.357-13.097,2.381-26.788,9.525-39.884
		c4.167-7.144,9.524-17.264,8.929-22.025c-0.595-4.167-9.524-11.311-16.073-16.073C13.096,317.285,0,306.57,0,292.284
		c0-14.287,13.096-24.408,24.406-33.932c6.549-5.357,15.478-11.905,16.073-16.072c0.595-4.167-4.762-14.287-8.929-22.026
		c-7.144-13.095-14.882-26.787-9.525-39.883c5.358-13.096,20.835-17.263,35.122-21.43c7.738-2.382,19.049-5.358,21.43-8.93
		c2.381-3.571,1.191-14.882,0-23.216c-1.786-14.881-3.572-30.954,6.548-40.478c10.12-10.12,25.597-8.334,40.479-6.549
		c8.334,1.19,19.644,2.382,23.216,0c3.572-2.381,6.548-13.096,8.929-21.43c4.167-14.881,8.334-29.763,21.43-35.122
		c13.096-6.548,26.788,1.192,39.884,8.334c7.144,4.167,17.263,9.525,22.025,8.93c4.167-0.596,11.311-9.524,16.073-16.072
		C266.09,13.097,276.805,0,291.091,0c14.287,0,24.407,13.097,33.932,24.408c5.357,6.548,11.906,15.476,16.072,16.072
		c4.762,1.19,14.287-4.763,22.026-8.93c13.095-7.142,26.787-14.882,39.289-9.524c13.095,5.357,17.263,20.835,21.429,35.122
		c2.381,7.738,5.358,19.049,8.93,21.43c3.572,2.38,14.882,1.19,23.216,0c14.883-1.787,30.954-3.572,40.479,6.547
		c10.12,10.121,8.334,25.598,6.547,40.48c-1.188,8.334-2.381,19.645,0,23.216c2.381,3.571,13.099,6.548,21.43,8.929
		c14.884,4.167,29.767,8.334,35.123,21.43c5.357,13.096-2.381,26.788-9.524,39.884c-4.166,7.144-9.524,17.263-8.93,22.025
		c0.596,4.167,9.524,11.311,16.073,16.073c11.31,8.929,24.406,19.644,24.406,33.931c0,14.286-13.097,24.407-24.406,33.931
		c-6.549,5.357-15.478,11.905-16.073,16.072c-0.595,4.167,4.764,14.287,8.93,22.025c7.144,13.097,14.882,26.788,9.524,39.884
		c-5.356,13.097-20.836,17.264-35.123,21.431c-7.737,2.381-19.049,5.357-21.43,8.929c-2.381,3.572-1.188,14.883,0,23.216
		c1.787,14.883,3.573,30.955-6.547,40.479c-10.121,10.12-25.597,8.334-40.479,6.548c-8.334-1.191-19.644-2.381-23.216,0
		c-3.571,2.382-6.549,13.097-8.93,21.431c-4.166,14.882-8.334,29.764-21.429,35.121c-13.097,5.357-26.787-2.381-39.885-9.524
		c-7.144-4.167-17.263-9.524-22.025-8.929c-3.571,1.785-10.715,10.715-15.478,17.263
		C315.498,570.279,305.378,583.374,291.091,583.374 M239.898,522.062c1.786,0,3.572,0,4.762,0.595
		c11.311,2.382,20.239,13.097,28.573,23.812c5.358,6.548,13.097,16.668,17.265,16.668c4.166,0,12.5-10.12,17.261-16.668
		c8.334-10.715,16.668-21.43,28.575-23.812c11.906-2.381,24.406,4.167,36.312,11.311c6.548,3.572,17.857,10.12,21.431,8.334
		c3.571-1.786,7.142-13.691,9.522-22.025c3.572-13.096,7.74-26.193,17.265-32.74c10.118-6.548,23.81-5.357,37.504-3.571
		c7.737,0.595,20.834,2.381,23.81-0.596c2.978-2.977,1.19-16.072,0.596-23.812c-1.786-13.691-2.977-27.383,3.57-37.502
		c6.549-10.12,20.241-13.691,32.741-17.265c8.334-2.38,20.24-5.952,22.025-9.523c1.19-3.571-4.763-14.882-8.334-21.43
		c-6.548-11.906-13.691-24.407-11.31-36.313c2.381-11.311,13.096-20.239,23.812-28.573c6.549-5.357,16.668-13.097,16.668-17.264
		s-10.119-12.501-16.668-17.263c-10.716-8.334-21.431-16.668-23.812-28.573c-2.382-11.906,4.166-24.407,11.31-36.312
		c3.571-6.548,10.12-17.859,8.334-21.43c-1.785-3.572-13.691-7.144-22.025-9.525c-13.096-3.572-26.192-7.739-32.741-17.263
		c-6.547-10.12-5.356-23.812-3.57-37.503c0.595-7.738,2.382-20.835-0.596-23.811c-2.976-2.976-16.072-1.19-23.81-0.595
		c-13.694,1.786-27.386,2.976-37.504-3.572c-10.119-6.549-13.692-20.24-17.265-32.74c-2.381-8.334-5.951-20.24-9.522-22.025
		c-3.573-1.192-14.883,4.761-21.431,8.333c-11.905,6.549-24.405,13.692-36.312,11.31c-11.312-2.381-20.241-13.095-28.575-23.81
		c-5.356-6.549-13.095-16.668-17.261-16.668c-4.168,0-12.502,10.119-17.265,16.668c-8.334,10.715-16.667,21.429-28.573,23.81
		c-11.906,2.381-24.407-4.167-36.312-11.31c-6.548-3.572-17.858-10.119-21.43-8.333c-3.572,1.785-7.144,13.691-9.524,22.025
		c-3.572,13.096-7.739,26.191-17.264,32.74c-10.119,6.548-23.811,5.358-37.502,3.572c-7.739-0.595-20.835-2.381-23.812,0.595
		c-2.976,2.976-1.19,16.073-0.595,23.811c1.786,13.691,2.977,27.383-3.572,37.503c-6.547,10.12-20.239,13.691-32.74,17.263
		c-8.334,2.381-20.24,5.953-22.025,9.525c-0.595,3.571,5.357,14.882,9.524,21.43c6.548,11.905,13.692,24.406,11.311,36.311
		c-2.382,11.311-13.096,20.24-23.812,28.574c-6.548,5.358-16.668,13.096-16.668,17.263s10.12,12.501,16.668,17.264
		c10.716,8.334,21.43,16.668,23.812,28.573c2.381,11.905-4.167,24.406-11.311,36.313c-4.167,6.548-10.119,17.858-8.929,21.43
		c1.786,3.571,13.691,7.144,22.025,9.523c13.097,3.572,26.193,7.739,32.741,17.265c6.548,10.119,5.358,23.811,3.571,37.502
		c-0.595,7.739-2.38,20.835,0.596,23.812c2.976,2.977,16.072,1.19,23.811,0.596c13.692-1.786,27.383-2.977,37.503,3.571
		c10.119,6.547,13.691,20.239,17.263,32.74c2.381,8.334,5.952,20.239,9.524,22.025c3.572,1.786,14.882-4.763,21.43-8.334
		C219.063,528.015,229.778,522.062,239.898,522.062"/>
	<polygon clip-path="url(#SVGID_2_)" fill="#FFFFFF" points="258.947,384.552 169.655,295.26 195.847,269.068 258.947,332.763 
		386.338,205.372 411.933,231.565 	"/>
</g>
</svg>
